<svg width="185" height="70" viewBox="0 0 185 70" fill="none" xmlns="http://www.w3.org/2000/svg">
<path fill-rule="evenodd" clip-rule="evenodd" d="M22.336 17.312C20.4587 16.288 18.2613 15.776 15.744 15.776C12.8 15.776 10.1333 16.5227 7.744 18.016C5.35467 19.5094 3.456 21.6427 2.048 24.416C0.682667 27.1894 0 30.4107 0 34.08C0 37.7494 0.682667 40.992 2.048 43.808C3.456 46.5814 5.35467 48.736 7.744 50.272C10.1333 51.7654 12.8 52.512 15.744 52.512C18.2613 52.512 20.4587 52 22.336 50.976C24.2133 49.9094 25.6853 48.544 26.752 46.88V51.936C26.752 54.7947 26.0693 56.864 24.704 58.144C23.3813 59.4667 21.5893 60.128 19.328 60.128C17.4507 60.128 15.872 59.7227 14.592 58.912C13.312 58.144 12.5013 57.0774 12.16 55.712H1.344C1.81333 59.9787 3.69067 63.3494 6.976 65.824C10.2613 68.3414 14.5493 69.6 19.84 69.6C23.808 69.6 27.1147 68.8107 29.76 67.232C32.448 65.6534 34.432 63.52 35.712 60.832C37.0347 58.1867 37.696 55.2214 37.696 51.936V16.288H26.752V21.344C25.728 19.68 24.256 18.336 22.336 17.312ZM24.448 27.68C25.984 29.2587 26.752 31.4134 26.752 34.144C26.752 36.8747 25.984 39.0294 24.448 40.608C22.9547 42.1867 21.12 42.976 18.944 42.976C16.768 42.976 14.912 42.1867 13.376 40.608C11.8827 38.9867 11.136 36.8107 11.136 34.08C11.136 31.3494 11.8827 29.216 13.376 27.68C14.912 26.1014 16.768 25.312 18.944 25.312C21.12 25.312 22.9547 26.1014 24.448 27.68ZM46.3815 10.912C47.6188 12.0214 49.1975 12.576 51.1175 12.576C52.9948 12.576 54.5308 12.0214 55.7255 10.912C56.9628 9.76003 57.5815 8.35203 57.5815 6.68803C57.5815 4.98136 56.9628 3.57336 55.7255 2.46402C54.5308 1.31202 52.9948 0.736023 51.1175 0.736023C49.1975 0.736023 47.6188 1.31202 46.3815 2.46402C45.1868 3.57336 44.5895 4.98136 44.5895 6.68803C44.5895 8.35203 45.1868 9.76003 46.3815 10.912ZM45.6135 52H56.5575V16.288H45.6135V52ZM64.3605 24.416C62.9952 27.1894 62.3125 30.4107 62.3125 34.08C62.3125 37.7494 62.9952 40.992 64.3605 43.808C65.7685 46.5814 67.6672 48.736 70.0565 50.272C72.4458 51.7654 75.1125 52.512 78.0565 52.512C80.5738 52.512 82.7712 52 84.6485 50.976C86.5685 49.952 88.0405 48.5867 89.0645 46.88V52H100.008V14.7925L94.716 9.50003L89.856 4.64003H89.0645V21.216C87.9552 19.552 86.4192 18.2294 84.4565 17.248C82.5365 16.2667 80.4032 15.776 78.0565 15.776C75.1125 15.776 72.4458 16.5227 70.0565 18.016C67.6672 19.5094 65.7685 21.6427 64.3605 24.416ZM86.7605 27.68C88.2965 29.2587 89.0645 31.4134 89.0645 34.144C89.0645 36.8747 88.2965 39.0294 86.7605 40.608C85.2672 42.1867 83.4325 42.976 81.2565 42.976C79.0805 42.976 77.2245 42.1867 75.6885 40.608C74.1952 38.9867 73.4485 36.8107 73.4485 34.08C73.4485 31.3494 74.1952 29.216 75.6885 27.68C77.2245 26.1014 79.0805 25.312 81.2565 25.312C83.4325 25.312 85.2672 26.1014 86.7605 27.68ZM105.59 51.568C106.054 51.984 106.646 52.192 107.366 52.192C108.07 52.192 108.646 51.984 109.094 51.568C109.558 51.136 109.79 50.608 109.79 49.984C109.79 49.344 109.558 48.808 109.094 48.376C108.646 47.944 108.07 47.728 107.366 47.728C106.646 47.728 106.054 47.944 105.59 48.376C105.142 48.808 104.918 49.344 104.918 49.984C104.918 50.608 105.142 51.136 105.59 51.568ZM119.779 38.992C119.075 38.608 118.251 38.416 117.307 38.416C116.203 38.416 115.203 38.696 114.307 39.256C113.411 39.816 112.699 40.616 112.171 41.656C111.659 42.696 111.403 43.904 111.403 45.28C111.403 46.656 111.659 47.872 112.171 48.928C112.699 49.968 113.411 50.776 114.307 51.352C115.203 51.912 116.203 52.192 117.307 52.192C118.251 52.192 119.075 52 119.779 51.616C120.483 51.216 121.035 50.704 121.435 50.08V51.976C121.435 53.048 121.179 53.824 120.667 54.304C120.171 54.8 119.499 55.048 118.651 55.048C117.947 55.048 117.355 54.896 116.875 54.592C116.395 54.304 116.091 53.904 115.963 53.392H111.907C112.083 54.992 112.787 56.256 114.019 57.184C115.251 58.128 116.859 58.6 118.843 58.6C120.331 58.6 121.571 58.304 122.563 57.712C123.571 57.12 124.315 56.32 124.795 55.312C125.291 54.32 125.539 53.208 125.539 51.976V38.608H121.435V40.504C121.051 39.88 120.499 39.376 119.779 38.992ZM120.571 42.88C121.147 43.472 121.435 44.28 121.435 45.304C121.435 46.328 121.147 47.136 120.571 47.728C120.011 48.32 119.323 48.616 118.507 48.616C117.691 48.616 116.995 48.32 116.419 47.728C115.859 47.12 115.579 46.304 115.579 45.28C115.579 44.256 115.859 43.456 116.419 42.88C116.995 42.288 117.691 41.992 118.507 41.992C119.323 41.992 120.011 42.288 120.571 42.88ZM134.413 39.112C133.693 39.528 133.092 40.104 132.613 40.84V38.608H128.508V52H132.613V45.784C132.613 44.68 132.868 43.912 133.38 43.48C133.893 43.032 134.661 42.808 135.684 42.808H136.812V38.464C135.932 38.464 135.133 38.68 134.413 39.112ZM141.318 51.352C142.374 51.912 143.558 52.192 144.87 52.192C146.182 52.192 147.366 51.912 148.422 51.352C149.494 50.792 150.334 49.992 150.942 48.952C151.566 47.896 151.878 46.68 151.878 45.304C151.878 43.928 151.574 42.72 150.966 41.68C150.358 40.624 149.526 39.816 148.47 39.256C147.414 38.696 146.23 38.416 144.918 38.416C143.606 38.416 142.422 38.696 141.366 39.256C140.31 39.816 139.478 40.624 138.87 41.68C138.262 42.72 137.958 43.928 137.958 45.304C137.958 46.696 138.254 47.912 138.846 48.952C139.454 49.992 140.278 50.792 141.318 51.352ZM146.862 47.776C146.318 48.352 145.654 48.64 144.87 48.64C144.086 48.64 143.43 48.352 142.902 47.776C142.39 47.2 142.134 46.376 142.134 45.304C142.134 44.216 142.398 43.392 142.926 42.832C143.454 42.256 144.118 41.968 144.918 41.968C145.702 41.968 146.358 42.256 146.886 42.832C147.43 43.408 147.702 44.232 147.702 45.304C147.702 46.376 147.422 47.2 146.862 47.776ZM167.279 52V38.608H163.175V45.88C163.175 46.776 162.943 47.472 162.479 47.968C162.015 48.464 161.383 48.712 160.583 48.712C159.799 48.712 159.175 48.464 158.711 47.968C158.247 47.472 158.015 46.776 158.015 45.88V38.608H153.935V46.432C153.935 47.6 154.151 48.616 154.583 49.48C155.015 50.344 155.623 51.008 156.407 51.472C157.191 51.92 158.095 52.144 159.119 52.144C159.983 52.144 160.767 51.968 161.471 51.616C162.191 51.248 162.759 50.768 163.175 50.176V52H167.279ZM175.987 38.992C175.283 39.376 174.731 39.88 174.331 40.504V38.608H170.227V58.384H174.331V50.128C174.731 50.736 175.283 51.232 175.987 51.616C176.707 52 177.531 52.192 178.459 52.192C179.563 52.192 180.563 51.912 181.459 51.352C182.355 50.776 183.059 49.968 183.571 48.928C184.099 47.872 184.363 46.656 184.363 45.28C184.363 43.904 184.099 42.696 183.571 41.656C183.059 40.616 182.355 39.816 181.459 39.256C180.563 38.696 179.563 38.416 178.459 38.416C177.515 38.416 176.691 38.608 175.987 38.992ZM179.323 42.88C179.899 43.456 180.187 44.256 180.187 45.28C180.187 46.304 179.899 47.12 179.323 47.728C178.747 48.32 178.051 48.616 177.235 48.616C176.419 48.616 175.723 48.32 175.147 47.728C174.587 47.136 174.307 46.328 174.307 45.304C174.307 44.28 174.587 43.472 175.147 42.88C175.723 42.288 176.419 41.992 177.235 41.992C178.067 41.992 178.763 42.288 179.323 42.88Z" fill="white"/>
</svg>
