<svg width="23" height="27" viewBox="0 0 23 27" fill="none" xmlns="http://www.w3.org/2000/svg">
<path d="M12.0811 0.0227825C13.5248 0 14.9602 0.0135007 16.3939 0C16.4808 1.72219 17.088 3.47644 18.324 4.69403C19.5575 5.942 21.3024 6.51325 23 6.70648V11.2368C21.4091 11.1837 19.8107 10.8461 18.367 10.1475C17.7383 9.85721 17.1525 9.48341 16.5792 9.10117C16.5718 12.3886 16.5925 15.6718 16.5585 18.9457C16.4725 20.5186 15.9637 22.0838 15.0669 23.3799C13.624 25.5375 11.1198 26.9441 8.54765 26.9879C6.96996 27.0799 5.39392 26.6411 4.04954 25.8328C1.82158 24.4928 0.253821 22.0399 0.0254821 19.4073C-0.00327962 18.8497 -0.00769636 18.2911 0.0122451 17.7332C0.2108 15.5925 1.24908 13.5446 2.86069 12.1515C4.6874 10.5289 7.24628 9.75596 9.64218 10.2133C9.66452 11.8798 9.59916 13.5446 9.59916 15.2111C8.50463 14.8499 7.2256 14.9512 6.26922 15.6288C5.56952 16.0989 5.04074 16.7906 4.76434 17.5973C4.536 18.1677 4.60136 18.8014 4.61459 19.4073C4.87685 21.2535 6.61752 22.8052 8.47567 22.6373C9.70754 22.6238 10.8881 21.8948 11.5301 20.8274C11.7378 20.4536 11.9702 20.0714 11.9827 19.6317C12.091 17.6193 12.048 15.6153 12.0613 13.6028C12.0704 9.06742 12.048 4.54468 12.0819 0.0236263L12.0811 0.0227825Z" fill="white"/>
</svg>
